<svg xmlns="http://www.w3.org/2000/svg" width="256" height="256"><path fill="#1976D2" fill-opacity=".227" fill-rule="evenodd" d="M0 128.004v128.004l128.25-.254 128.25-.254.254-127.75L257.008 0H0zm.485.496c0 70.4.119 99.053.265 63.672s.146-92.98 0-128S.485 58.1.485 128.5"/><path fill="#1976D2" fill-opacity=".082" fill-rule="evenodd" d="M13.139 2.618C7.238 5.559 2.594 11.081.98 17.075.315 19.543.058 58.573.233 130.25L.5 239.658l3.026 4.894c1.876 3.034 4.888 6.046 7.922 7.922l4.895 3.026h111.579c104.417 0 111.784-.112 114.781-1.752 4.752-2.597 10.059-8.48 11.377-12.609.639-2.002 1.557-4.067 2.041-4.589 1.135-1.227 1.163-218.844.027-218.142-.468.29-1.364-1.186-1.991-3.279-1.272-4.245-6.579-10.212-11.454-12.877C239.715.617 232.092.482 128.98.233L18.461-.034zm.743 11.264L10 17.765v220.264l3.423 3.736 3.422 3.735 58.828.076c32.355.041 55.002-.213 50.327-.564-4.675-.352-6.812-.723-4.75-.826L125 244v-12.879l-3.75-.393c-2.062-.215 1.2-.54 7.25-.722l11-.329-14.5-.735c-17.185-.871-26.172-3.002-39.706-9.412-63.329-30-78.233-113.022-29.153-162.395 9.301-9.357 17.036-14.862 28.915-20.579 13.478-6.487 22.662-8.674 39.944-9.514l14.5-.704-11-.337c-6.05-.186-9.312-.514-7.25-.729l3.75-.393V12l-3.75-.186c-2.062-.103.075-.469 4.75-.814s-17.765-.711-49.868-.814L17.765 10zM.483 128c0 60.225.12 84.862.267 54.75.147-30.113.147-79.388 0-109.5C.603 43.137.483 67.775.483 128M113.5 49.503c-30.52 5.767-54.1 27.271-62.729 57.206-3.24 11.237-3.22 31.41.041 42.734 10.082 35.004 42.472 59.235 78.026 58.371l7.662-.187L128 207c-4.675-.345-7.263-.711-5.75-.814L125 206v-30l-4.75-.207c-2.612-.114 1.55-.471 9.25-.793l14-.586-15.75-.207L112 174v-21h2.5c2.491 0 2.5-.033 2.5-9.5s-.009-9.5-2.5-9.5H112v-22.187l9.908.343c5.45.189 9.387.013 8.75-.391s-4.758-.826-9.158-.939c-6.97-.178-7.26-.251-2.25-.565l5.75-.361V100l-3.75-.189c-2.062-.104.3-.469 5.25-.811l9-.622-9.25-.189L117 98V82l10.75-.196 10.75-.195L128 81c-5.775-.335-8.812-.697-6.75-.804L125 80V50l-2.75-.186c-1.513-.103 1.075-.469 5.75-.814l8.5-.627-8-.096c-4.4-.053-11.15.499-15 1.226m25.769.19c.973.254 2.323.237 3-.037s-.119-.481-1.769-.461-2.204.244-1.231.498m-23.519.969c.688.278 1.813.278 2.5 0 .688-.277.125-.504-1.25-.504s-1.937.227-1.25.504m29.063.021c.721.289 1.584.253 1.916-.079s-.258-.568-1.312-.525c-1.165.048-1.402.285-.604.604m-29 155c.721.289 1.584.253 1.916-.079s-.258-.568-1.312-.525c-1.165.048-1.402.285-.604.604m29 0c.721.289 1.584.253 1.916-.079s-.258-.568-1.312-.525c-1.165.048-1.402.285-.604.604m-5 1c.721.289 1.584.253 1.916-.079s-.258-.568-1.312-.525c-1.165.048-1.402.285-.604.604m3 22c.721.289 1.584.253 1.916-.079s-.258-.568-1.312-.525c-1.165.048-1.402.285-.604.604"/><path fill="#1976D2" fill-opacity=".243" fill-rule="evenodd" d="M17.994.934C11.135 3.021 5.866 7.426 2.364 14 .578 17.354.5 22.102.5 128s.078 110.646 1.864 114c2.609 4.899 6.456 8.816 11.136 11.342l4 2.158 107.934.268c122.139.302 115.134.717 123.138-7.287 2.963-2.964 4.818-5.912 5.631-8.95.667-2.492 1.568-4.531 2.004-4.531s.786-48.713.778-108.25-.368-107.696-.798-107.019c-.496.781-1.218-.399-1.973-3.22-.757-2.831-2.742-6.063-5.452-8.879-7.765-8.067-.941-7.643-121.694-7.546C68.456.133 19.372.515 17.994.934m-1.233 10.128c-2.285 1.207-4.521 3.507-5.75 5.916C9.033 20.856 9 22.681 9.016 128.21l.017 107.29 2.233 3.896c1.229 2.143 3.802 4.73 5.718 5.75 3.331 1.772 8.21 1.854 110.435 1.854 105.946 0 106.989-.019 111.205-2.06 3.09-1.496 4.82-3.226 6.316-6.316 2.04-4.215 2.06-5.265 2.06-110.624s-.02-106.409-2.06-110.624c-1.496-3.09-3.226-4.82-6.316-6.316-4.217-2.042-5.214-2.06-111.19-2.016-104.491.043-107.019.089-110.673 2.018M.482 128c0 59.675.121 84.087.268 54.25s.147-78.663 0-108.5S.482 68.325.482 128M111 28.463C70.345 36.151 39.66 65.052 29.738 105c-2.867 11.548-3.042 32.965-.362 44.5 13.888 59.783 74.564 93.484 132.434 73.558l8.31-2.861 21.794 4.078 21.793 4.078 4.897-2.426c3.864-1.915 5.4-3.444 7.287-7.249l2.39-4.821-4.263-21.179-4.263-21.178 3.14-8.879c13.55-38.319 4.183-78.88-24.66-106.788-13.582-13.141-27.292-20.891-45.116-25.504-12.131-3.139-30.969-3.974-42.119-1.866m.5 20.954c-15.31 3.527-27.759 10.089-38.673 20.385C56.468 85.235 48.014 105.062 48.014 128c0 21.875 7.318 40.147 22.349 55.8 16.148 16.816 37.272 25.029 61.579 23.942 11.447-.512 16.339-1.667 31.186-7.363 4.591-1.761 4.769-1.749 22.812 1.528 10.001 1.816 18.389 3.097 18.639 2.847.251-.25-1.14-8.202-3.091-17.671-3.865-18.765-3.884-18.18 1.01-29.904 4.089-9.794 5.834-20.938 5.196-33.179-.68-13.046-2.477-20.002-8.134-31.5-9.743-19.801-25.494-33.45-47.011-40.738-7.899-2.675-10.701-3.107-22.049-3.396-8.627-.22-15.018.134-19 1.051M118 90v8h20V82h-20zm-5 33v10h5v20h-5v21h30v-21h-5v-34.154l-2.923-2.923c-2.824-2.824-3.248-2.923-12.5-2.923H113z"/><path fill="#1976D2" fill-opacity=".876" fill-rule="evenodd" d="M108 29.442C71.085 37.205 42.266 63.946 31.419 100.5c-3.601 12.137-4.519 33.956-1.961 46.606 6.382 31.558 27.963 59.235 56.154 72.017 12.905 5.852 22.731 8.08 38.024 8.621 16.133.572 23.404-.387 37.403-4.933l9.538-3.098 19.462 3.653c10.703 2.009 21.036 3.646 22.961 3.639 6.91-.025 13.988-6.939 13.996-13.67.002-1.741-1.798-11.97-4-22.731l-4.003-19.564 2.479-6.27c14.633-37.002 5.762-79.478-22.501-107.741C186.475 44.533 170.203 35.15 153 30.521c-8.747-2.354-35.847-3.004-45-1.079m12 18.141c-1.375.242-5.2.923-8.5 1.513-14.034 2.508-29.914 11.19-40.946 22.387-17.058 17.311-25.764 42.546-22.689 65.767 7.039 53.168 60.837 85.353 109.857 65.725 4.086-1.636 9.153-2.975 11.26-2.975 2.108 0 11.132 1.367 20.054 3.037 8.923 1.671 16.363 2.898 16.534 2.727s-1.238-7.713-3.13-16.761-3.44-17.652-3.44-19.121c0-1.47 1.352-5.849 3.004-9.731 4.822-11.332 6.342-19.231 6.285-32.651-.061-14.254-2.142-23.275-8.105-35.133-13.403-26.659-38.959-43.355-68.546-44.784-5.026-.242-10.263-.243-11.638 0M118 90.5V98h20V83h-20zm-5 32.5v10h5v20h-5v20h30v-20h-5v-33.2l-3.4-3.4c-3.368-3.368-3.484-3.4-12.5-3.4H113z"/></svg>